<!DOCTYPE svg PUBLIC "-//W3C//DTD SVG 1.1//EN" "http://www.w3.org/Graphics/SVG/1.1/DTD/svg11.dtd">
<!-- Uploaded to: SVG Repo, www.svgrepo.com, Transformed by: SVG Repo Mixer Tools -->
<svg width="800px" height="800px" viewBox="0 0 24 24" fill="none" xmlns="http://www.w3.org/2000/svg">
<g id="SVGRepo_bgCarrier" stroke-width="0"/>
<g id="SVGRepo_tracerCarrier" stroke-linecap="round" stroke-linejoin="round"/>
<g id="SVGRepo_iconCarrier">
<path d="M16 4H19C20.1046 4 21 4.89543 21 6V7M16 20H19C20.1046 20 21 19.1046 21 18V17M4.4253 19.4276L10.4253 21.2276C11.7085 21.6126 13 20.6517 13 19.3119V4.68806C13 3.34834 11.7085 2.38744 10.4253 2.77241L4.4253 4.57241C3.57934 4.8262 3 5.60484 3 6.48806V17.5119C3 18.3952 3.57934 19.1738 4.4253 19.4276Z" stroke="#6256CA" stroke-linecap="round" stroke-linejoin="round" stroke-width="2"/>
<path d="M9.001 12H9" stroke="#6256CA" stroke-linecap="round" stroke-linejoin="round" stroke-width="2"/>
<path d="M21 12H16M16 12L18 10M16 12L18 14" stroke="#6256CA" stroke-linecap="round" stroke-linejoin="round" stroke-width="2"/>
</g>
</svg>